<svg width="60" height="66" viewBox="0 0 234.375 265.74310128341455" class="css-1j8o68f"
            ><defs id="SvgjsDefs1817" /><g
              id="SvgjsG1818"
              featurekey="rootContainer"
              transform="matrix(4.725301111045653,0,0,4.725301111045653,0.0000347689931040783,0.019721259814305742)"
              fill="#ecf0f1"
              ><path
                xmlns="http://www.w3.org/2000/svg"
                d="M23.11 55.78L1.69 43.41A3.39 3.39 0 0 1 0 40.48V15.75a3.39 3.39 0 0 1 1.69-2.94L23.11.45a3.39 3.39 0 0 1 3.39 0l21.41 12.37a3.39 3.39 0 0 1 1.69 2.94v24.72a3.39 3.39 0 0 1-1.69 2.94L26.5 55.78a3.39 3.39 0 0 1-3.39 0z"
              /></g
            ><g
              id="SvgjsG1819"
              featurekey="symbolFeature-0"
              transform="matrix(0.8866314795671458,0,0,0.8866314795671458,75.1929235654386,67.0097793442099)"
              fill="#111111"
              ><g xmlns="http://www.w3.org/2000/svg"
                ><path
                  d="M52.97,26.428c-7.903,0-14.331,6.429-14.331,14.33c0,7.903,6.428,14.331,14.331,14.331c7.901,0,14.33-6.428,14.33-14.331   C67.3,32.856,60.871,26.428,52.97,26.428z"
                /><path
                  d="M38.368,46.5c-0.233-0.593-0.436-1.202-0.599-1.828l-18.577,5.247c-1.249-3.026-4.224-5.155-7.698-5.155   c-4.601,0-8.328,3.728-8.328,8.326c0,4.599,3.728,8.328,8.328,8.328c4.599,0,8.326-3.729,8.326-8.328   c0-0.451-0.045-0.889-0.115-1.32L38.368,46.5z"
                /><path
                  d="M30.136,20.9c0.23-0.144,0.445-0.302,0.65-0.469l10.63,9.719c0.435-0.474,0.9-0.918,1.389-1.335l-10.721-9.801   c1.357-2.031,1.497-4.75,0.126-6.961c-1.87-3.016-5.83-3.946-8.846-2.076c-3.018,1.87-3.945,5.831-2.076,8.847   S27.119,22.771,30.136,20.9z"
                /><path
                  d="M64.758,30.416l11.468-8.525c1.736,1.72,4.377,2.373,6.811,1.447c3.315-1.265,4.98-4.977,3.717-8.292   c-1.265-3.317-4.977-4.981-8.294-3.718c-3.314,1.263-4.98,4.977-3.716,8.292c0.097,0.254,0.213,0.495,0.337,0.729l-11.69,8.69   C63.872,29.469,64.33,29.929,64.758,30.416z"
                /><path
                  d="M47.697,74.572c-0.396-0.215-0.804-0.385-1.215-0.53l4.023-17.785c-0.637-0.102-1.263-0.244-1.875-0.42L44.609,73.61   c-3.254-0.348-6.547,1.25-8.206,4.303c-2.194,4.041-0.699,9.097,3.341,11.293c4.042,2.196,9.098,0.7,11.293-3.341   C53.232,81.824,51.738,76.768,47.697,74.572z"
                /><path
                  d="M89.794,49.945c-2.887-2.062-6.901-1.394-8.962,1.495c-0.159,0.222-0.296,0.451-0.42,0.683l-13.218-4.748   c-0.275,0.591-0.585,1.16-0.93,1.708l13.496,4.849c-0.47,2.398,0.446,4.958,2.565,6.471c2.889,2.063,6.901,1.393,8.965-1.495   C93.354,56.02,92.683,52.007,89.794,49.945z"
                /></g
              ></g
            ><g
              id="SvgjsG1820"
              featurekey="nameFeature-0"
              transform="matrix(0.8536571598774882,0,0,0.8536571598774882,39.56084719203378,157.24448618963964)"
              fill="#111111"
              ><path
                d="M27.143 17.714 l-16.857 0 l0 4.8571 l14.571 0 l0 6.2857 l-14.571 0 l0 4.8571 l16.857 0 l0 6.2857 l-20 0 l-4.2857 -4.2857 l0 -24.286 l24.286 0 l0 6.2857 z M33.71424285714286 35.7143 l0 -24.286 l7.4286 0 l0 22.286 l15.429 0 l0 6.2857 l-18.571 0 z M85.14314285714286 11.428999999999998 l0 6.2857 l-14.571 16 l14.571 0 l0 6.2857 l-24.286 0 l0 -6.2857 l14.571 -16 l-14.571 0 l0 -6.2857 l24.286 0 z M111.714 11.428999999999998 l4.2857 4.2857 l0 20 l-4.2857 4.2857 l-16.571 0 l-4.2857 -4.2857 l0 -20 l4.2857 -4.2857 l16.571 0 z M108.571 33.7143 l0 -16 l-10.286 0 l0 16 l10.286 0 z M140.28528571428572 11.428999999999998 l7.4286 0 l0 28.571 l-6.5714 0 l-11.143 -16 l0 16 l-7.4286 0 l0 -28.571 l6.5714 0 l11.143 15.886 l0 -15.886 z M178.57157142857145 17.714 l-16.857 0 l0 4.8571 l14.571 0 l0 6.2857 l-14.571 0 l0 4.8571 l16.857 0 l0 6.2857 l-20 0 l-4.2857 -4.2857 l0 -24.286 l24.286 0 l0 6.2857 z"
              /></g
            ></svg>